<?xml version="1.0" encoding="UTF-8"?> <svg xmlns="http://www.w3.org/2000/svg" id="Layer_2" viewBox="0 0 1255.68 235.57"><g id="Layer_2-2"><path d="m1094.43,232.63v-71.38l24.09,35.83c18.5,27.32,34.95,38.48,58.45,38.48,20.85,0,36.42-6.76,54.05-23.5l24.67-23.5-33.78-34.95-20.56,18.5c-7.64,6.76-13.51,10.57-19.39,10.57-7.34,0-12.63-4.99-17.92-12.92l-17.62-25.55,65.5-69.91v-7.64h-60.51l-56.98,64.62V1.17h-55.22v231.46h55.22Zm-130.12-169.48c-26.73,0-47.88,14.1-57.86,34.66v-31.14h-55.22v165.96h55.22v-76.66c0-29.08,14.1-51.11,33.78-51.11,12.63,0,18.8,8.22,18.8,25.26v102.51h55.22v-116.61c0-36.42-21.15-52.87-49.93-52.87m-189.16,70.79c0,32.02-28.79,65.79-56.69,65.79-17.04,0-28.49-12.34-28.49-32.6,0-32.02,29.08-65.79,56.98-65.79,17.04,0,28.2,12.63,28.2,32.6m51.11-67.26h-33.78l-12.34,18.8c-13.51-17.04-36.13-22.32-53.46-22.32-44.65,0-79.89,41.42-82.24,91.94-2.06,47,29.37,80.48,70.79,80.48,24.67,0,44.65-12.92,55.81-32.02v29.08h55.22V66.68Zm-267.59-3.52c-25.26,0-47.88,14.98-59.33,37.6V1.17h-55.22v231.46h54.93v-22.62c10.57,16.15,26.73,25.55,50.81,25.55,46.41,0,76.96-36.13,79.31-87.53,2.35-49.64-29.08-84.89-70.49-84.89m26.44,69.91c0,32.02-28.79,65.79-56.69,65.79-17.04,0-28.49-12.34-28.49-32.6,0-32.02,29.08-65.79,56.98-65.79,17.04,0,28.2,12.63,28.2,32.6m-215.89-69.91c-26.73,0-47.88,14.1-57.86,34.66v-31.14h-55.22v165.96h55.22v-76.66c0-29.08,14.1-51.11,33.78-51.11,12.63,0,18.8,8.22,18.8,25.26v102.51h55.22v-116.61c0-36.42-21.15-52.87-49.93-52.87M120.13,0C52.87,0,0,52.58,0,119.55s50.23,115.43,116.02,115.43,120.13-52.58,120.13-119.55S185.93,0,120.13,0m66.68,88.71c0,50.52-49.05,105.15-94.58,105.15-26.73,0-42.59-18.8-42.59-47.88,0-51.7,50.52-104.86,94.58-104.86,26.14,0,42.59,18.5,42.59,47.58" style="fill:#0000e9;"></path></g></svg> 